# xmcd CD database file
#
# Track frame offsets:
#	150
#	9422
#	20717
#	33812
#	45632
#	58127
#	70472
#	83267
#	97262
#	108557
#	120377
#	133097
#	142592
#	155687
#	169307
#	181052
#	194297
#	207692
#	218237
#	228632
#	240227
#	253097
#	264542
#	275912
#	289232
#
# Disc length: 4022 seconds
#
# Revision: 1
# Processed by: cddbd v1.5.2PL0 Copyright (c) Steve Scherf et al.
# Submitted via: CDex 1.51
#
DISCID=740fb419
DTITLE=Various Artist - Country Western  CD 4  1950
DYEAR=2012
DGENRE=Country
TTITLE0=Hank Snow-I'm Moving On
TTITLE1=Red Foley-M I S S I S S I P P I
TTITLE2=Little Jimmy Dickens-Hillbilly Fever
TTITLE3=Ernest Tubb and Red Foley-Tennessee Border No. 2
TTITLE4=Hank Williams-I Just Don't Like This Kind Of Living
TTITLE5=Lefty Frizzell-I Love You A Thousand Ways
TTITLE6=Eddy Arnold-Take Me In Your Arms And Hold Me
TTITLE7=Ernest Tubb-Unfaithful One
TTITLE8=Bud Messner-Slippin' Around With Jole Blon
TTITLE9=Eddy Arnold-Mama And Daddy Broke My Heart
TTITLE10=Delmore Brothers-Blues Stay Away From Me
TTITLE11=Tennessee Ernie Ford-Anticipation Blues
TTITLE12=Elton Britt and Rosalie Allen-Quicksilver
TTITLE13=Red Foley and Ernest Tubb-Goodnight Irene
TTITLE14=Hank Williams-Why Should We Try Anymore
TTITLE15=Ernest Tubb-Remember Me, I'm The One Who Loves You
TTITLE16=Floyd Tillman-I Gotta Have My Baby Back
TTITLE17=Eddy Arnold-Cuddle Buggin' Baby
TTITLE18=Bob Wills-Ida Red Like The Boogie-Stereo
TTITLE19=Roy Rogers-Stampede
TTITLE20=Red Foley-Cincinnati Dancing Pig
TTITLE21=Hank Williams-My Son Calls Another Man Daddy
TTITLE22=Ernest Tubb-Throw Your Love My Way
TTITLE23=Eddy Arnold-Why Should I Cry
TTITLE24=Hank Snow-The Golden Rocket
EXTD=YEAR: 2012
EXTT0=
EXTT1=
EXTT2=
EXTT3=
EXTT4=
EXTT5=
EXTT6=
EXTT7=
EXTT8=
EXTT9=
EXTT10=
EXTT11=
EXTT12=
EXTT13=
EXTT14=
EXTT15=
EXTT16=
EXTT17=
EXTT18=
EXTT19=
EXTT20=
EXTT21=
EXTT22=
EXTT23=
EXTT24=
PLAYORDER=
